<mxfile host="app.diagrams.net" modified="2021-03-13T16:41:24.343Z" agent="5.0 (X11; CrOS x86_64 13597.105.0) AppleWebKit/537.36 (KHTML, like Gecko) Chrome/88.0.4324.208 Safari/537.36" etag="fcinROjDOa2LA3_HbtT3" version="14.4.8" type="github">
  <diagram id="FGcx9E1Y4onoBXSFR6wq" name="Page-1">
    <mxGraphModel dx="390" dy="242" grid="1" gridSize="10" guides="1" tooltips="1" connect="1" arrows="1" fold="1" page="1" pageScale="0.5" pageWidth="1169" pageHeight="827" math="0" shadow="0">
      <root>
        <mxCell id="0" />
        <mxCell id="1" parent="0" />
        <mxCell id="zjI_xymQldbG3oin9Gea-23" value="" style="rounded=0;whiteSpace=wrap;html=1;" vertex="1" parent="1">
          <mxGeometry x="81.5" y="207" width="248.5" height="8" as="geometry" />
        </mxCell>
        <mxCell id="zjI_xymQldbG3oin9Gea-22" value="" style="rounded=0;whiteSpace=wrap;html=1;" vertex="1" parent="1">
          <mxGeometry x="81.5" y="290" width="248.5" height="8" as="geometry" />
        </mxCell>
        <mxCell id="zjI_xymQldbG3oin9Gea-1" value="" style="rounded=0;whiteSpace=wrap;html=1;" parent="1" vertex="1">
          <mxGeometry x="90" y="168" width="9" height="150" as="geometry" />
        </mxCell>
        <mxCell id="zjI_xymQldbG3oin9Gea-2" value="" style="rounded=0;whiteSpace=wrap;html=1;" vertex="1" parent="1">
          <mxGeometry x="125" y="168" width="9" height="150" as="geometry" />
        </mxCell>
        <mxCell id="zjI_xymQldbG3oin9Gea-3" value="" style="rounded=0;whiteSpace=wrap;html=1;" vertex="1" parent="1">
          <mxGeometry x="137" y="168" width="9" height="150" as="geometry" />
        </mxCell>
        <mxCell id="zjI_xymQldbG3oin9Gea-4" value="" style="rounded=0;whiteSpace=wrap;html=1;" vertex="1" parent="1">
          <mxGeometry x="149" y="168" width="9" height="150" as="geometry" />
        </mxCell>
        <mxCell id="zjI_xymQldbG3oin9Gea-5" value="" style="rounded=0;whiteSpace=wrap;html=1;" vertex="1" parent="1">
          <mxGeometry x="161" y="168" width="9" height="150" as="geometry" />
        </mxCell>
        <mxCell id="zjI_xymQldbG3oin9Gea-6" value="" style="rounded=0;whiteSpace=wrap;html=1;" vertex="1" parent="1">
          <mxGeometry x="173" y="168" width="9" height="150" as="geometry" />
        </mxCell>
        <mxCell id="zjI_xymQldbG3oin9Gea-7" value="" style="rounded=0;whiteSpace=wrap;html=1;" vertex="1" parent="1">
          <mxGeometry x="102" y="168" width="9" height="150" as="geometry" />
        </mxCell>
        <mxCell id="zjI_xymQldbG3oin9Gea-8" value="" style="rounded=0;whiteSpace=wrap;html=1;" vertex="1" parent="1">
          <mxGeometry x="114" y="168" width="9" height="150" as="geometry" />
        </mxCell>
        <mxCell id="zjI_xymQldbG3oin9Gea-9" value="" style="rounded=0;whiteSpace=wrap;html=1;" vertex="1" parent="1">
          <mxGeometry x="184" y="168" width="9" height="150" as="geometry" />
        </mxCell>
        <mxCell id="zjI_xymQldbG3oin9Gea-10" value="" style="rounded=0;whiteSpace=wrap;html=1;" vertex="1" parent="1">
          <mxGeometry x="220" y="168" width="9" height="150" as="geometry" />
        </mxCell>
        <mxCell id="zjI_xymQldbG3oin9Gea-11" value="" style="rounded=0;whiteSpace=wrap;html=1;" vertex="1" parent="1">
          <mxGeometry x="231" y="168" width="9" height="150" as="geometry" />
        </mxCell>
        <mxCell id="zjI_xymQldbG3oin9Gea-12" value="" style="rounded=0;whiteSpace=wrap;html=1;" vertex="1" parent="1">
          <mxGeometry x="243" y="168" width="9" height="150" as="geometry" />
        </mxCell>
        <mxCell id="zjI_xymQldbG3oin9Gea-13" value="" style="rounded=0;whiteSpace=wrap;html=1;" vertex="1" parent="1">
          <mxGeometry x="255" y="168" width="9" height="150" as="geometry" />
        </mxCell>
        <mxCell id="zjI_xymQldbG3oin9Gea-14" value="" style="rounded=0;whiteSpace=wrap;html=1;" vertex="1" parent="1">
          <mxGeometry x="267" y="168" width="9" height="150" as="geometry" />
        </mxCell>
        <mxCell id="zjI_xymQldbG3oin9Gea-15" value="" style="rounded=0;whiteSpace=wrap;html=1;" vertex="1" parent="1">
          <mxGeometry x="196" y="168" width="9" height="150" as="geometry" />
        </mxCell>
        <mxCell id="zjI_xymQldbG3oin9Gea-16" value="" style="rounded=0;whiteSpace=wrap;html=1;" vertex="1" parent="1">
          <mxGeometry x="208" y="168" width="9" height="150" as="geometry" />
        </mxCell>
        <mxCell id="zjI_xymQldbG3oin9Gea-17" value="" style="rounded=0;whiteSpace=wrap;html=1;" vertex="1" parent="1">
          <mxGeometry x="279" y="168" width="9" height="150" as="geometry" />
        </mxCell>
        <mxCell id="zjI_xymQldbG3oin9Gea-18" value="" style="rounded=0;whiteSpace=wrap;html=1;" vertex="1" parent="1">
          <mxGeometry x="290" y="168" width="9" height="150" as="geometry" />
        </mxCell>
        <mxCell id="zjI_xymQldbG3oin9Gea-19" value="" style="rounded=0;whiteSpace=wrap;html=1;" vertex="1" parent="1">
          <mxGeometry x="302" y="168" width="9" height="150" as="geometry" />
        </mxCell>
        <mxCell id="zjI_xymQldbG3oin9Gea-20" value="" style="rounded=0;whiteSpace=wrap;html=1;" vertex="1" parent="1">
          <mxGeometry x="314" y="168" width="9" height="150" as="geometry" />
        </mxCell>
        <mxCell id="zjI_xymQldbG3oin9Gea-21" value="" style="rounded=0;whiteSpace=wrap;html=1;" vertex="1" parent="1">
          <mxGeometry x="80" y="320" width="250" height="20" as="geometry" />
        </mxCell>
        <mxCell id="zjI_xymQldbG3oin9Gea-26" value="20" style="endArrow=classic;startArrow=classic;html=1;" edge="1" parent="1">
          <mxGeometry y="10" width="50" height="50" relative="1" as="geometry">
            <mxPoint x="340" y="320" as="sourcePoint" />
            <mxPoint x="340" y="290" as="targetPoint" />
            <mxPoint as="offset" />
          </mxGeometry>
        </mxCell>
        <mxCell id="zjI_xymQldbG3oin9Gea-28" value="100" style="endArrow=classic;startArrow=classic;html=1;" edge="1" parent="1">
          <mxGeometry width="50" height="50" relative="1" as="geometry">
            <mxPoint x="360" y="320" as="sourcePoint" />
            <mxPoint x="360" y="220" as="targetPoint" />
          </mxGeometry>
        </mxCell>
      </root>
    </mxGraphModel>
  </diagram>
</mxfile>
